<?xml version="1.0" standalone="no"?>
<!DOCTYPE svg PUBLIC "-//W3C//DTD SVG 20010904//EN"
 "http://www.w3.org/TR/2001/REC-SVG-20010904/DTD/svg10.dtd">
<svg version="1.0" xmlns="http://www.w3.org/2000/svg"
 width="48.000000pt" height="48.000000pt" viewBox="0 0 48.000000 48.000000"
 preserveAspectRatio="xMidYMid meet">

<g transform="translate(0.000000,48.000000) scale(0.100000,-0.100000)"
fill="#159A9C" stroke="none">
<path d="M67 402 c-14 -16 -17 -43 -17 -164 0 -128 2 -147 18 -161 16 -14 43
-17 174 -17 137 0 157 2 171 18 14 16 17 43 17 164 0 128 -2 147 -18 161 -16
14 -43 17 -174 17 -137 0 -157 -2 -171 -18z m53 -27 c0 -8 -7 -15 -15 -15 -8
0 -15 7 -15 15 0 8 7 15 15 15 8 0 15 -7 15 -15z m50 0 c0 -8 -7 -15 -15 -15
-8 0 -15 7 -15 15 0 8 7 15 15 15 8 0 15 -7 15 -15z m220 0 c0 -12 -17 -15
-95 -15 -78 0 -95 3 -95 15 0 12 17 15 95 15 78 0 95 -3 95 -15z m8 -162 l-3
-118 -155 0 -155 0 -3 118 -3 117 161 0 161 0 -3 -117z"/>
<path d="M110 235 l0 -55 65 0 65 0 0 55 0 55 -65 0 -65 0 0 -55z m100 0 c0
-22 -4 -25 -35 -25 -31 0 -35 3 -35 25 0 22 4 25 35 25 31 0 35 -3 35 -25z"/>
<path d="M270 205 l0 -85 50 0 50 0 0 85 0 85 -50 0 -50 0 0 -85z m70 0 c0
-48 -2 -55 -20 -55 -18 0 -20 7 -20 55 0 48 2 55 20 55 18 0 20 -7 20 -55z"/>
<path d="M110 135 c0 -12 14 -15 65 -15 51 0 65 3 65 15 0 12 -14 15 -65 15
-51 0 -65 -3 -65 -15z"/>
</g>
</svg>
